<svg xmlns="http://www.w3.org/2000/svg" viewBox="0 0 432.13 94.31"><defs><style>.cls-1{fill:#bf554c;}.cls-2{fill:#1e3043;}</style></defs><title>Asset 9</title><g id="Layer_2" data-name="Layer 2"><g id="Layer_7" data-name="Layer 7"><g id="clown"><circle id="nose" class="cls-1" cx="195.86" cy="64.85" r="9.82"/><path id="hat" class="cls-2" d="M248.36,38.36H235.11a39.27,39.27,0,0,0-78.51,0H143.36a1.8,1.8,0,0,0,0,3.59h105a1.8,1.8,0,0,0,0-3.59Z"/><g id="eyes"><g id="left-eye"><circle id="eye" class="cls-2" cx="182.01" cy="51.89" r="3.19"/><path id="brow" class="cls-2" d="M164,53.19a33.79,33.79,0,0,1,5.19-3.11,35.69,35.69,0,0,1,5.74-2.21,29.73,29.73,0,0,1,6.21-1.14,28.7,28.7,0,0,1,6.53.26,2.68,2.68,0,0,1-.7,5.32,3.16,3.16,0,0,1-.55-.13l-.14-.06a23.87,23.87,0,0,0-5.25-1.4,25.8,25.8,0,0,0-5.64-.23,32.59,32.59,0,0,0-5.75.85A32.92,32.92,0,0,0,164,53.19Z"/></g><g id="right-eye"><circle id="eye-2" data-name="eye" class="cls-2" cx="216.67" cy="51.89" r="3.19"/><path id="brow-2" data-name="brow" class="cls-2" d="M198.66,53.19a33.79,33.79,0,0,1,5.19-3.11,35.69,35.69,0,0,1,5.74-2.21,29.73,29.73,0,0,1,6.21-1.14,28.7,28.7,0,0,1,6.53.26,2.68,2.68,0,0,1-.7,5.32,3.16,3.16,0,0,1-.55-.13l-.14-.06a23.87,23.87,0,0,0-5.25-1.4,25.8,25.8,0,0,0-5.64-.23,32.59,32.59,0,0,0-5.75.85A32.92,32.92,0,0,0,198.66,53.19Z"/></g></g><path id="mouth" class="cls-2" d="M225.86,66.91h0a4.87,4.87,0,0,0-3.42,1.29,39.37,39.37,0,0,1-53.17,0,4.85,4.85,0,0,0-3.42-1.29,4.92,4.92,0,0,0-4.21,7.27C173,95.24,195.86,94.3,195.86,94.3s22.84.94,34.22-20.12A4.92,4.92,0,0,0,225.86,66.91Zm-1.62,8.37c-.51.54-12.82,13.07-28.38,13.07s-28.56-12.51-29.11-13A.87.87,0,0,1,168,74.05c.13.13,13.06,12.56,27.89,12.56s27-12.41,27.13-12.54a.88.88,0,0,1,1.23,0A.86.86,0,0,1,224.24,75.28Z"/></g><g id="dad"><path class="cls-2" d="M7.41,31.63h-6c-1,0-1.44-.29-1.44-.88a3,3,0,0,1,.59-1.66,7,7,0,0,1,1.53-1.6,10.37,10.37,0,0,1,2.1-1.24,6.77,6.77,0,0,1,2.26-.59l2.95-.07A39.26,39.26,0,0,1,20.34,27a23.32,23.32,0,0,1,8.76,4.63,21.53,21.53,0,0,1,5.84,8.14,30.57,30.57,0,0,1,2.12,12,31.65,31.65,0,0,1-.68,6.55,29.76,29.76,0,0,1-2,6,26.34,26.34,0,0,1-3.11,5.19,22.13,22.13,0,0,1-4.08,4.07,18.32,18.32,0,0,1-4.89,2.67,16.27,16.27,0,0,1-5.57,1c-.86,0-1.29-.28-1.29-.85a1.15,1.15,0,0,1,.81-1,27.37,27.37,0,0,0,5.57-3.36A17.51,17.51,0,0,0,26,67.52a20.9,20.9,0,0,0,2.55-6.25,36,36,0,0,0,.86-8.33,30.76,30.76,0,0,0-1.12-8.59,16.6,16.6,0,0,0-3.7-6.67,17.12,17.12,0,0,0-6.78-4.37A31.19,31.19,0,0,0,7.41,31.63ZM0,75.76V36.05a1.79,1.79,0,0,1,.9-1.77,6.71,6.71,0,0,1,2.78-.44,6.85,6.85,0,0,1,2.9.43,1.8,1.8,0,0,1,.83,1.78V69.8a1.34,1.34,0,0,0,1.51,1.51H15c1.06,0,1.59.3,1.59.92,0,.37-.38.85-1.13,1.44a15.92,15.92,0,0,1-2.78,1.69A22.2,22.2,0,0,1,9,76.76a14.37,14.37,0,0,1-3.83.59H1.51C.5,77.35,0,76.82,0,75.76Z"/><path class="cls-2" d="M63.07,55.39a2,2,0,0,1,1,1,6.64,6.64,0,0,1,.26,2.26,6.64,6.64,0,0,1-.24,2.12.88.88,0,0,1-.87.65A3.06,3.06,0,0,1,62,61.07a15.84,15.84,0,0,0-6.26-1.51,13.57,13.57,0,0,0-8.62,3.27,4.19,4.19,0,0,1-1.74,1c-.39,0-.59-.22-.59-.67A4.42,4.42,0,0,1,45.57,61a13.26,13.26,0,0,1,5.14-5,14.75,14.75,0,0,1,7.09-1.71A11.65,11.65,0,0,1,63.07,55.39Zm.29,19.9a12.39,12.39,0,0,1-3.83,2.3,11.91,11.91,0,0,1-4.38.9c-3.27,0-5.77-.86-7.5-2.6a8.68,8.68,0,0,1-2.59-6.39,4.93,4.93,0,0,1,1.87-4.16,5.16,5.16,0,0,1,3-1.33,1,1,0,0,1,.7.3,1.17,1.17,0,0,1,.3.88c0,2.8.47,4.83,1.43,6.1s2.67,1.9,5.12,1.9a11.51,11.51,0,0,0,2.69-.39,9.68,9.68,0,0,0,2.69-1,2.27,2.27,0,0,1,1-.41c.34,0,.51.46.51,1.37A3.34,3.34,0,0,1,63.36,75.29ZM59.61,38.48a17.81,17.81,0,0,1,5.56.81,9.92,9.92,0,0,1,4.16,2.6,11.79,11.79,0,0,1,2.6,4.61,22.43,22.43,0,0,1,.9,6.79v20A3,3,0,0,1,72.26,75a6.28,6.28,0,0,1-1.4,1.42,7.24,7.24,0,0,1-1.77,1,4.84,4.84,0,0,1-1.64.35q-1.29,0-1.29-1.59V54.66q0-10.87-8.62-10.87a15.92,15.92,0,0,0-9.1,2.76,5.85,5.85,0,0,1-2.1,1.07c-.36,0-.55-.2-.55-.59a4.12,4.12,0,0,1,1.14-2.43A15.7,15.7,0,0,1,59.61,38.48Z"/><path class="cls-2" d="M102.34,71.6a2.41,2.41,0,0,1,.66-.26c.42,0,.63.45.63,1.33a3.57,3.57,0,0,1-1,2.73,12.46,12.46,0,0,1-8.4,3.09,22,22,0,0,1-2.93-.18,14.25,14.25,0,0,1-2.77-.7A9.55,9.55,0,0,1,86,76.24,10.87,10.87,0,0,1,83.88,74a13.13,13.13,0,0,1-1.69-3.3,25.3,25.3,0,0,1-1.07-4.55,40.12,40.12,0,0,1-.4-6,22.69,22.69,0,0,1,.49-4.68A10.68,10.68,0,0,1,82.45,52a9.24,9.24,0,0,1,2.67-2.56,5.66,5.66,0,0,1,2.93-1.13c.59,0,.88.37.88,1.11A11.88,11.88,0,0,1,88.62,51c-.21.91-.42,2.13-.65,3.66a34,34,0,0,0-.33,4.81q0,7,2.18,10.35T97,73.19A11.38,11.38,0,0,0,102.34,71.6Zm-.85-26.12a12.29,12.29,0,0,0-6.37-1.69,14.76,14.76,0,0,0-5.08.85A23.79,23.79,0,0,0,85,47.32a6.36,6.36,0,0,1-1.8,1c-.42,0-.63-.23-.63-.7a4,4,0,0,1,1.07-2.25,15.33,15.33,0,0,1,13.19-6.89,13.24,13.24,0,0,1,5.3,1.06,2.51,2.51,0,0,1,1.24,1,5.39,5.39,0,0,1,.31,2.3c0,2-.37,3.05-1.1,3.05A2.36,2.36,0,0,1,101.49,45.48Zm4,30.65V25.52a3.41,3.41,0,0,1,.67-2.25,7.81,7.81,0,0,1,2.26-1.81,5.26,5.26,0,0,1,2.41-.7q1.29,0,1.29,1.59V73a3.71,3.71,0,0,1-.66,2.28A7.63,7.63,0,0,1,109.17,77a5.3,5.3,0,0,1-2.41.68Q105.47,77.72,105.47,76.13Z"/></g><g id="jokes"><path class="cls-2" d="M273.05,82.51A6.53,6.53,0,0,1,268,80.19a2.76,2.76,0,0,1-.62-1.81,4.56,4.56,0,0,1,1.29-2.76,3.5,3.5,0,0,1,2.54-1.55,1.48,1.48,0,0,1,.92.26,12.29,12.29,0,0,1,1.18,1.18,2.47,2.47,0,0,0,1.88,1,4.73,4.73,0,0,0,1.88-.48,4.49,4.49,0,0,1,1.47-.48c.61,0,.92.35.92,1.07a4.06,4.06,0,0,1-.39,1.47A10,10,0,0,1,278,80a6.14,6.14,0,0,1-2,1.77A5.78,5.78,0,0,1,273.05,82.51Zm16.62-56V67.92A16.51,16.51,0,0,1,287,77.64q-2.67,3.8-6,3.8a.81.81,0,0,1-.54-.22.78.78,0,0,1-.24-.59,4.58,4.58,0,0,1,.63-1.29,12.69,12.69,0,0,0,1.4-6.41V30.42A3.83,3.83,0,0,1,283,28a9.23,9.23,0,0,1,2.63-2.08,6,6,0,0,1,2.75-.94C289.24,24.93,289.67,25.45,289.67,26.51Z"/><path class="cls-2" d="M304.88,57c0,1.72,0,3.2.11,4.42s.22,2.51.42,3.84a11.85,11.85,0,0,0,1,3.31A10.51,10.51,0,0,0,308,71a5.75,5.75,0,0,0,2.49,1.64,10.54,10.54,0,0,0,3.54.54,8.86,8.86,0,0,0,3-.48,9,9,0,0,1,1.49-.48c.51,0,.77.27.77.81,0,1.1-.79,2.29-2.38,3.55a9,9,0,0,1-5.83,1.9,13.44,13.44,0,0,1-5.59-1.07,10.33,10.33,0,0,1-3.81-2.8,13.22,13.22,0,0,1-2.3-4.34A25.27,25.27,0,0,1,298.25,65a54,54,0,0,1-.3-6,23.36,23.36,0,0,1,.37-4,10.27,10.27,0,0,1,1-3.18,7.42,7.42,0,0,1,2.48-2.44,5.79,5.79,0,0,1,2.93-1.1c.62,0,.92.37.92,1.1,0,.13-.13,1.07-.38,2.84A33,33,0,0,0,304.88,57Zm9-18.53q8.4,0,12.36,5t4,14.61a29.27,29.27,0,0,1-.76,6.39,27.26,27.26,0,0,1-2,6.06A17.23,17.23,0,0,1,324,75.25c-1.35,1.3-2.44,2-3.28,2-.51,0-.77-.23-.77-.7a1.18,1.18,0,0,1,.26-.59c.17-.24.4-.62.7-1.12a9.49,9.49,0,0,0,.77-1.75q1.51-4.12,1.51-11.68a40.26,40.26,0,0,0-.57-7.24,18.38,18.38,0,0,0-1.88-5.47A8.76,8.76,0,0,0,317.07,45a12,12,0,0,0-5.67-1.23,17,17,0,0,0-9.58,3.39c-.12.1-.31.22-.55.38s-.44.29-.57.39a2.73,2.73,0,0,1-.43.26.9.9,0,0,1-.36.11c-.35,0-.52-.21-.52-.63a2.83,2.83,0,0,1,.42-1.18,10.92,10.92,0,0,1,.72-1.14Q305.92,38.49,313.87,38.48Z"/><path class="cls-2" d="M338.18,76.13V25.4A4,4,0,0,1,340,22.09a6,6,0,0,1,3.52-1.33c.85,0,1.28.53,1.28,1.59V73.08a4,4,0,0,1-1.8,3.33,6,6,0,0,1-3.54,1.31Q338.18,77.72,338.18,76.13Zm27-1.1c-1.05,1.79-2.21,2.69-3.46,2.69-.59,0-1.19-.46-1.8-1.37L347.28,57.82a3,3,0,0,1-.62-1.54,3.2,3.2,0,0,1,1-2l10.87-12.12a6.71,6.71,0,0,1,2.8-2.1,17.49,17.49,0,0,1,4.2-.4c.76,0,1.14.3,1.14.92a2.93,2.93,0,0,1-1.07,1.73L354.65,53.59a2.67,2.67,0,0,0-.88,1.62,2.39,2.39,0,0,0,.62,1.36l10.76,14.74a3.33,3.33,0,0,1,.66,1.8A3.71,3.71,0,0,1,365.22,75Z"/><path class="cls-2" d="M378.71,53.88c0,.69.21,1.13.64,1.31a5.1,5.1,0,0,0,1.9.28,23.55,23.55,0,0,0,5.49-.56,8.71,8.71,0,0,0,3.5-1.54,6.53,6.53,0,0,0,1.75-2.1,5.61,5.61,0,0,0,.53-2.43,4.64,4.64,0,0,0-1.58-3.67c-1.06-.92-2.75-1.38-5.09-1.38a17.35,17.35,0,0,0-10.31,3.46,5.25,5.25,0,0,1-1.81,1.07c-.41,0-.62-.23-.62-.7a3.9,3.9,0,0,1,1.07-2.25,18,18,0,0,1,4.53-4.16A16.51,16.51,0,0,1,383.35,39a16.26,16.26,0,0,1,4.16-.56,19,19,0,0,1,4.79.56,11.64,11.64,0,0,1,3.8,1.71,7.64,7.64,0,0,1,2.57,3.17,11.06,11.06,0,0,1,.92,4.69q0,5.76-5.47,8.86t-14.93,3.12q-2.65,0-6-.3c-1.1-.07-1.66-.61-1.66-1.62a12.64,12.64,0,0,1,1.18-6.13,8.43,8.43,0,0,1,3.06-3.15,6.44,6.44,0,0,1,2.8-1.07c.59,0,.88.37.88,1.1a14.79,14.79,0,0,1-.36,2.16A13.3,13.3,0,0,0,378.71,53.88Zm-6.89,10.28q0-1.92,1.77-1.92h3.16a2,2,0,0,1,1.35.37,3.16,3.16,0,0,1,.61,1.62q1.44,9,9.8,9a14.32,14.32,0,0,0,3.94-.52,11,11,0,0,0,2.85-1.14c.68-.42,1.3-.8,1.88-1.14a2.92,2.92,0,0,1,1.27-.52c.57,0,.85.31.85.92a3.78,3.78,0,0,1-.85,2,12.84,12.84,0,0,1-6.72,4.77,18.15,18.15,0,0,1-6,.94q-6.63,0-10.3-4A14.68,14.68,0,0,1,371.82,64.16Z"/><path class="cls-2" d="M426.75,69q0-3.94-2.16-5.64a11.61,11.61,0,0,0-6.21-2.06,26.64,26.64,0,0,1-6.15-1.22,11.82,11.82,0,0,1-4-2.15,8.05,8.05,0,0,1-2.09-2.73,7.68,7.68,0,0,1-.64-3.15A3.86,3.86,0,0,1,407.26,49a5.38,5.38,0,0,1,3-1.34q.86,0,1.14,1.14a18,18,0,0,0,.61,2.1,4.65,4.65,0,0,0,.89,1.49,5.9,5.9,0,0,0,1.14,1,5.66,5.66,0,0,0,1.77.7c.79.21,1.56.38,2.28.5s1.76.27,3.11.44a18.36,18.36,0,0,1,5.46,1.46,8.79,8.79,0,0,1,3.39,2.6,10.18,10.18,0,0,1,1.62,3.2,14,14,0,0,1,.47,3.76,12.9,12.9,0,0,1-.79,4.51,11.44,11.44,0,0,1-1.93,3.5,11.65,11.65,0,0,1-2.32,2.14A3.88,3.88,0,0,1,425,77c-.39,0-.58-.18-.58-.55a3.29,3.29,0,0,1,.58-1.11A11.74,11.74,0,0,0,426.75,69Zm2.43-28.37a2.38,2.38,0,0,1,1.14,1.73c0,.62-.51,1.37-1.53,2.27A4.47,4.47,0,0,1,426,46a2.19,2.19,0,0,1-.66-.09q-.3-.09-.87-.33c-.38-.16-.66-.27-.83-.32a16.6,16.6,0,0,0-6.22-1.43,17.3,17.3,0,0,0-9.14,2.39l-.72.44-.74.47a.91.91,0,0,1-.46.16q-.51,0-.51-.63A4.23,4.23,0,0,1,407,44.38q4.86-5.9,13.67-5.9a21.35,21.35,0,0,1,4.75.56A9.46,9.46,0,0,1,429.18,40.62ZM412.49,71.31q1.22.73,1.68,1a7.88,7.88,0,0,0,1.58.57,8.88,8.88,0,0,0,2.41.32,11.05,11.05,0,0,0,3.21-.48c1.05-.32,1.61-.48,1.66-.48.56,0,.84.29.84.88a2.72,2.72,0,0,1-.59,1.46,8.41,8.41,0,0,1-4.58,3.29,12.63,12.63,0,0,1-4.07.63,13,13,0,0,1-5.94-1.44c-1.89-1-2.83-1.94-2.83-2.94a3.22,3.22,0,0,1,1.53-2.34,4.8,4.8,0,0,1,2.93-1.2A4.51,4.51,0,0,1,412.49,71.31Z"/></g></g></g></svg>